<svg width="15" height="16" viewBox="0 0 15 16" fill="none" xmlns="http://www.w3.org/2000/svg">
<g clip-path="url(#clip0_106_1966)">
<path d="M3.04687 15.033H2.10937C1.92289 15.033 1.74405 14.9589 1.61219 14.827C1.48033 14.6952 1.40625 14.5163 1.40625 14.3298V10.1111C1.40625 9.92462 1.48033 9.74578 1.61219 9.61392C1.74405 9.48205 1.92289 9.40797 2.10937 9.40797H3.04687C3.23335 9.40797 3.4122 9.48205 3.54406 9.61392C3.67592 9.74578 3.75 9.92462 3.75 10.1111V14.3298C3.75 14.5163 3.67592 14.6952 3.54406 14.827C3.4122 14.9589 3.23335 15.033 3.04687 15.033Z" fill="white"/>
<path d="M9.60937 15.0321H8.67187C8.48539 15.0321 8.30655 14.958 8.17469 14.8262C8.04283 14.6943 7.96875 14.5155 7.96875 14.329V7.29774C7.96875 7.11126 8.04283 6.93242 8.17469 6.80056C8.30655 6.6687 8.48539 6.59462 8.67187 6.59462H9.60937C9.79585 6.59462 9.9747 6.6687 10.1066 6.80056C10.2384 6.93242 10.3125 7.11126 10.3125 7.29774V14.329C10.3125 14.5155 10.2384 14.6943 10.1066 14.8262C9.9747 14.958 9.79585 15.0321 9.60937 15.0321Z" fill="white"/>
<path d="M12.8906 15.0325H11.9531C11.7666 15.0325 11.5878 14.9584 11.4559 14.8265C11.3241 14.6947 11.25 14.5158 11.25 14.3294V4.01686C11.25 3.83038 11.3241 3.65154 11.4559 3.51968C11.5878 3.38781 11.7666 3.31374 11.9531 3.31374H12.8906C13.0771 3.31374 13.2559 3.38781 13.3878 3.51968C13.5197 3.65154 13.5937 3.83038 13.5937 4.01686V14.3294C13.5937 14.5158 13.5197 14.6947 13.3878 14.8265C13.2559 14.9584 13.0771 15.0325 12.8906 15.0325Z" fill="white"/>
<path d="M6.32812 15.0324H5.39062C5.20414 15.0324 5.0253 14.9583 4.89344 14.8264C4.76158 14.6946 4.6875 14.5157 4.6875 14.3292V1.67299C4.6875 1.48651 4.76158 1.30767 4.89344 1.1758C5.0253 1.04394 5.20414 0.969864 5.39062 0.969864H6.32812C6.5146 0.969864 6.69345 1.04394 6.82531 1.1758C6.95717 1.30767 7.03125 1.48651 7.03125 1.67299V14.3292C7.03125 14.5157 6.95717 14.6946 6.82531 14.8264C6.69345 14.9583 6.5146 15.0324 6.32812 15.0324Z" fill="white"/>
</g>
<defs>
<clipPath id="clip0_106_1966">
<rect width="15" height="15" fill="white" transform="translate(0 0.501358)"/>
</clipPath>
</defs>
</svg>
