<svg width="15" height="16" viewBox="0 0 15 16" fill="none" xmlns="http://www.w3.org/2000/svg">
<path d="M7.66289 3.46888C7.61927 3.42716 7.56124 3.40387 7.50088 3.40387C7.44052 3.40387 7.38248 3.42716 7.33887 3.46888L1.94531 8.62132C1.92241 8.64323 1.90418 8.66956 1.89175 8.69872C1.87931 8.72787 1.87291 8.75925 1.87295 8.79095L1.87207 13.6267C1.87207 13.8753 1.97084 14.1138 2.14666 14.2896C2.32247 14.4654 2.56093 14.5642 2.80957 14.5642H5.625C5.74932 14.5642 5.86855 14.5148 5.95645 14.4269C6.04436 14.339 6.09375 14.2198 6.09375 14.0954V10.1111C6.09375 10.0489 6.11844 9.98929 6.1624 9.94534C6.20635 9.90138 6.26596 9.87669 6.32812 9.87669H8.67187C8.73403 9.87669 8.79365 9.90138 8.8376 9.94534C8.88155 9.98929 8.90625 10.0489 8.90625 10.1111V14.0954C8.90625 14.2198 8.95563 14.339 9.04354 14.4269C9.13145 14.5148 9.25068 14.5642 9.375 14.5642H12.1893C12.4379 14.5642 12.6764 14.4654 12.8522 14.2896C13.028 14.1138 13.1268 13.8753 13.1268 13.6267V8.79095C13.1268 8.75925 13.1204 8.72787 13.108 8.69872C13.0955 8.66956 13.0773 8.64323 13.0544 8.62132L7.66289 3.46888Z" fill="white"/>
<path d="M14.3821 7.65509L12.1907 5.55861V2.37726C12.1907 2.25294 12.1413 2.13371 12.0534 2.0458C11.9655 1.95789 11.8463 1.90851 11.722 1.90851H10.3157C10.1914 1.90851 10.0722 1.95789 9.98427 2.0458C9.89637 2.13371 9.84698 2.25294 9.84698 2.37726V3.31476L8.15011 1.6923C7.99132 1.53175 7.75518 1.43976 7.50001 1.43976C7.24571 1.43976 7.01016 1.53175 6.85138 1.69259L0.619933 7.6545C0.437706 7.83029 0.414855 8.11944 0.580675 8.30987C0.622315 8.35794 0.6733 8.39703 0.730528 8.42477C0.787756 8.45251 0.850029 8.46831 0.913558 8.47121C0.977087 8.47412 1.04054 8.46407 1.10006 8.44167C1.15958 8.41927 1.21392 8.385 1.25978 8.34093L7.33888 2.53195C7.38249 2.49022 7.44053 2.46693 7.50089 2.46693C7.56125 2.46693 7.61928 2.49022 7.6629 2.53195L13.7426 8.34093C13.8321 8.42681 13.9521 8.47368 14.0762 8.47127C14.2002 8.46885 14.3183 8.41734 14.4044 8.32804C14.5843 8.14171 14.5693 7.83409 14.3821 7.65509Z" fill="white"/>
</svg>
