<?xml version="1.0" encoding="UTF-8" standalone="no"?>
<!DOCTYPE svg PUBLIC "-//W3C//DTD SVG 1.1//EN" "http://www.w3.org/Graphics/SVG/1.1/DTD/svg11.dtd">
<svg width="100%" height="100%" viewBox="0 0 144 144" version="1.1" xmlns="http://www.w3.org/2000/svg" xmlns:xlink="http://www.w3.org/1999/xlink" xml:space="preserve" xmlns:serif="http://www.serif.com/" style="fill-rule:evenodd;clip-rule:evenodd;stroke-linejoin:round;stroke-miterlimit:2;">
    <g transform="matrix(1,0,0,1,-4782.19,-7330.61)">
        <g>
            <g transform="matrix(0.88706,0,0,0.88706,548.179,835.998)">
                <path d="M4934.34,7361.82C4934.34,7339.57 4916.27,7321.51 4894.02,7321.51L4813.4,7321.51C4791.15,7321.51 4773.08,7339.57 4773.08,7361.82L4773.08,7442.45C4773.08,7464.7 4791.15,7482.76 4813.4,7482.76L4894.02,7482.76C4916.27,7482.76 4934.34,7464.7 4934.34,7442.45L4934.34,7361.82Z" style="fill:rgb(45,55,72);"/>
            </g>
            <g transform="matrix(4.10621,0,0,4.10621,4808.54,7355.71)">
                <path d="M20.88,0.031L1.122,0.031C0.502,0.031 0,0.546 0,1.181L0,10.822C0,11.457 0.502,11.972 1.122,11.972L5.176,11.972L5.176,21.429C5.175,21.734 5.293,22.026 5.503,22.242C5.713,22.458 5.999,22.579 6.296,22.579L15.704,22.579C16.323,22.579 16.826,22.064 16.826,21.429L16.826,11.976L20.88,11.976C21.177,11.976 21.462,11.855 21.672,11.639C21.883,11.424 22,11.131 22,10.827L22,1.181C22,0.876 21.883,0.584 21.672,0.368C21.462,0.152 21.177,0.031 20.88,0.031ZM1.3,1.365L10.35,1.365L10.35,10.639L1.3,10.639L1.3,1.365ZM15.525,21.246L6.476,21.246L6.476,11.976L15.525,11.976L15.525,21.246ZM20.7,10.639L11.65,10.639L11.65,1.365L20.7,1.365L20.7,10.639Z" style="fill:white;fill-rule:nonzero;"/>
                <path d="M7.448,7.538C7.705,7.784 8.105,7.778 8.354,7.523C8.602,7.268 8.609,6.857 8.368,6.595L6.291,4.465C6.036,4.207 5.625,4.207 5.371,4.465L3.288,6.595C3.114,6.761 3.043,7.011 3.102,7.247C3.162,7.483 3.341,7.667 3.571,7.727C3.801,7.788 4.045,7.715 4.208,7.538L5.825,5.88L7.448,7.538Z" style="fill:white;fill-rule:nonzero;"/>
                <path d="M14.557,7.538L16.175,5.88L17.793,7.538C18.049,7.784 18.45,7.778 18.698,7.523C18.947,7.268 18.953,6.857 18.713,6.595L16.635,4.465C16.38,4.207 15.97,4.207 15.715,4.465L13.637,6.595C13.397,6.857 13.403,7.268 13.652,7.523C13.9,7.778 14.301,7.784 14.557,7.538Z" style="fill:white;fill-rule:nonzero;"/>
                <path d="M9.382,15.072C9.125,14.826 8.724,14.833 8.476,15.088C8.228,15.343 8.222,15.754 8.463,16.017L10.541,18.145C10.663,18.27 10.828,18.34 11.001,18.34C11.173,18.34 11.339,18.27 11.461,18.145L13.538,16.017C13.703,15.848 13.767,15.602 13.707,15.372C13.647,15.142 13.472,14.962 13.247,14.9C13.023,14.838 12.783,14.904 12.618,15.072L11.001,16.732L9.382,15.072Z" style="fill:white;fill-rule:nonzero;"/>
            </g>
        </g>
    </g>
</svg>
