<svg width="23" height="23" viewBox="0 0 23 23" fill="none" xmlns="http://www.w3.org/2000/svg">
<path d="M21.1295 0H1.3719C0.752293 0 0.25 0.502293 0.25 1.1219V10.5297C0.25 11.1493 0.752293 11.6516 1.3719 11.6516H5.42558V20.8795C5.42522 21.1769 5.54311 21.4623 5.75329 21.6727C5.96347 21.8831 6.24869 22.0014 6.54611 22.0014H15.9539C16.5735 22.0014 17.0758 21.4991 17.0758 20.8795V11.6557H21.1295C21.4269 11.6557 21.7121 11.5375 21.9223 11.327C22.1325 11.1166 22.2504 10.8312 22.25 10.5338V1.1219C22.2504 0.824482 22.1325 0.539118 21.9223 0.328681C21.7121 0.118244 21.4269 0 21.1295 0ZM1.55042 1.30179H10.5998V10.3512H1.55042V1.30179ZM15.7754 20.701H6.726V11.6557H15.7754V20.701ZM20.9496 10.3512H11.9002V1.30179H20.9496V10.3512Z" fill="#2D3748"/>
<path d="M7.69831 7.32455C7.95457 7.56505 8.35548 7.55869 8.60399 7.31018C8.85249 7.06167 8.85885 6.66077 8.61835 6.40451L6.5407 4.32686C6.28594 4.07448 5.87542 4.07448 5.62066 4.32686L3.53752 6.40451C3.36436 6.56701 3.29345 6.81092 3.35248 7.04093C3.41151 7.27094 3.59112 7.45055 3.82114 7.50959C4.05115 7.56862 4.29506 7.4977 4.45756 7.32455L6.07519 5.70692L7.69831 7.32455Z" fill="#2D3748"/>
<path d="M14.8073 7.32455L16.4249 5.70692L18.0425 7.32455C18.2988 7.56505 18.6997 7.55869 18.9482 7.31018C19.1967 7.06167 19.2031 6.66077 18.9626 6.40451L16.8849 4.32686C16.6301 4.07448 16.2196 4.07448 15.9649 4.32686L13.8872 6.40451C13.6467 6.66077 13.6531 7.06167 13.9016 7.31018C14.1501 7.55869 14.551 7.56505 14.8073 7.32455Z" fill="#2D3748"/>
<path d="M9.63176 14.6767C9.37514 14.4366 8.97423 14.4435 8.72609 14.6924C8.47795 14.9413 8.47219 15.3422 8.71309 15.5981L10.7907 17.6744C10.9126 17.7966 11.0781 17.8654 11.2508 17.8654C11.4234 17.8654 11.5889 17.7966 11.7108 17.6744L13.7884 15.5981C13.953 15.4338 14.0174 15.1941 13.9574 14.9694C13.8974 14.7446 13.722 14.569 13.4974 14.5087C13.2728 14.4483 13.033 14.5123 12.8684 14.6767L11.2508 16.2957L9.63176 14.6767Z" fill="#2D3748"/>
</svg>
