<svg width="78" height="24" viewBox="0 0 78 24" fill="none" xmlns="http://www.w3.org/2000/svg">
<path d="M37.248 12.2288H41.966V13.9928H37.248V12.2288ZM37.416 16.2608H42.75V18.0808H35.162V8.28081H42.568V10.1008H37.416V16.2608ZM46.3762 18.0808L43.2122 10.5488H45.4662L48.0982 17.0308H46.9782L49.7082 10.5488H51.8082L48.6302 18.0808H46.3762ZM52.6994 18.0808V10.5488H54.8834V18.0808H52.6994ZM53.7914 9.49881C53.3901 9.49881 53.0634 9.38214 52.8114 9.14881C52.5594 8.91548 52.4334 8.62614 52.4334 8.28081C52.4334 7.93548 52.5594 7.64614 52.8114 7.41281C53.0634 7.17948 53.3901 7.06281 53.7914 7.06281C54.1927 7.06281 54.5194 7.17481 54.7714 7.39881C55.0234 7.61348 55.1494 7.89348 55.1494 8.23881C55.1494 8.60281 55.0234 8.90614 54.7714 9.14881C54.5287 9.38214 54.2021 9.49881 53.7914 9.49881ZM56.3923 18.0808V16.7648L60.8443 11.5008L61.2223 12.2288H56.4903V10.5488H62.9863V11.8648L58.5343 17.1288L58.1423 16.4008H63.1123V18.0808H56.3923ZM65.3272 20.9088C64.9352 20.9088 64.5479 20.8481 64.1652 20.7268C63.7825 20.6055 63.4699 20.4375 63.2272 20.2228L64.0252 18.6688C64.1932 18.8181 64.3845 18.9348 64.5992 19.0188C64.8232 19.1028 65.0425 19.1448 65.2572 19.1448C65.5652 19.1448 65.8079 19.0701 65.9852 18.9208C66.1719 18.7808 66.3399 18.5428 66.4892 18.2068L66.8812 17.2828L67.0492 17.0448L69.7512 10.5488H71.8512L68.4492 18.5428C68.2065 19.1495 67.9265 19.6255 67.6092 19.9708C67.3012 20.3161 66.9559 20.5588 66.5732 20.6988C66.1999 20.8388 65.7845 20.9088 65.3272 20.9088ZM66.6152 18.3748L63.2552 10.5488H65.5092L68.1132 16.8488L66.6152 18.3748Z" fill="#2D3748"/>
<path d="M20.8795 0.0310059H1.1219C0.502293 0.0310059 0 0.545778 0 1.18078V10.8223C0 11.4573 0.502293 11.9721 1.1219 11.9721H5.17558V21.4292C5.17522 21.734 5.29311 22.0265 5.50329 22.2421C5.71347 22.4578 5.99869 22.579 6.29611 22.579H15.7039C16.3235 22.579 16.8258 22.0642 16.8258 21.4292V11.9763H20.8795C21.1769 11.9763 21.4621 11.8551 21.6723 11.6394C21.8825 11.4238 22.0004 11.1313 22 10.8265V1.18078C22.0004 0.875972 21.8825 0.583518 21.6723 0.367853C21.4621 0.152187 21.1769 0.0310059 20.8795 0.0310059ZM1.30042 1.36514H10.3498V10.6393H1.30042V1.36514ZM15.5254 21.2463H6.476V11.9763H15.5254V21.2463ZM20.6996 10.6393H11.6502V1.36514H20.6996V10.6393Z" fill="#2D3748"/>
<path d="M7.44831 7.53764C7.70457 7.78411 8.10548 7.7776 8.35399 7.52292C8.60249 7.26823 8.60885 6.85737 8.36835 6.59474L6.2907 4.46547C6.03594 4.20682 5.62542 4.20682 5.37066 4.46547L3.28752 6.59474C3.11436 6.76128 3.04345 7.01125 3.10248 7.24697C3.16151 7.4827 3.34112 7.66678 3.57114 7.72727C3.80115 7.78777 4.04506 7.7151 4.20756 7.53764L5.82519 5.87982L7.44831 7.53764Z" fill="#2D3748"/>
<path d="M14.5573 7.53764L16.1749 5.87982L17.7925 7.53764C18.0488 7.78411 18.4497 7.7776 18.6982 7.52292C18.9467 7.26823 18.9531 6.85737 18.7126 6.59474L16.6349 4.46547C16.3801 4.20682 15.9696 4.20682 15.7149 4.46547L13.6372 6.59474C13.3967 6.85737 13.4031 7.26823 13.6516 7.52292C13.9001 7.7776 14.301 7.78411 14.5573 7.53764Z" fill="#2D3748"/>
<path d="M9.38176 15.0723C9.12514 14.8262 8.72423 14.8333 8.47609 15.0884C8.22795 15.3434 8.22219 15.7543 8.46309 16.0166L10.5407 18.1445C10.6626 18.2698 10.8281 18.3402 11.0008 18.3402C11.1734 18.3402 11.3389 18.2698 11.4608 18.1445L13.5384 16.0166C13.703 15.8482 13.7674 15.6025 13.7074 15.3722C13.6474 15.1419 13.472 14.9619 13.2474 14.9001C13.0228 14.8382 12.783 14.9039 12.6184 15.0723L11.0008 16.7315L9.38176 15.0723Z" fill="#2D3748"/>
</svg>
