<svg width="12" height="12" viewBox="0 0 12 12" fill="none" xmlns="http://www.w3.org/2000/svg">
<g clip-path="url(#clip0_371_4155)">
<path d="M7.39658 1.44557C6.9785 0.99418 6.39455 0.745605 5.75002 0.745605C5.10205 0.745605 4.51617 0.992676 4.10002 1.44127C3.67936 1.8948 3.4744 2.51119 3.52252 3.17678C3.61791 4.4899 4.61715 5.5581 5.75002 5.5581C6.88289 5.5581 7.88041 4.49012 7.9773 3.17721C8.02607 2.51764 7.81982 1.90254 7.39658 1.44557Z" fill="#2D3748"/>
<path d="M9.53137 10.3701H1.96887C1.86989 10.3714 1.77186 10.3506 1.68192 10.3092C1.59198 10.2679 1.51239 10.207 1.44895 10.131C1.3093 9.96406 1.25301 9.73611 1.29469 9.50559C1.47602 8.49969 2.04192 7.65471 2.93137 7.06152C3.72157 6.53494 4.72252 6.24512 5.75012 6.24512C6.77772 6.24512 7.77867 6.53516 8.56887 7.06152C9.45832 7.65449 10.0242 8.49947 10.2055 9.50537C10.2472 9.7359 10.1909 9.96385 10.0513 10.1308C9.98787 10.2068 9.90829 10.2677 9.81835 10.3091C9.72841 10.3505 9.63037 10.3714 9.53137 10.3701V10.3701Z" fill="#2D3748"/>
</g>
<defs>
<clipPath id="clip0_371_4155">
<rect width="11" height="11" fill="white" transform="translate(0.25 0.0581055)"/>
</clipPath>
</defs>
</svg>
